<svg width="45" height="45" viewBox="0 0 45 45" fill="none" xmlns="http://www.w3.org/2000/svg">
<path d="M22.494 14.9965C18.3625 14.9965 14.9909 18.3681 14.9909 22.4996C14.9909 26.631 18.3625 30.0026 22.494 30.0026C26.6254 30.0026 29.997 26.631 29.997 22.4996C29.997 18.3681 26.6254 14.9965 22.494 14.9965ZM44.9975 22.4996C44.9975 19.3925 45.0256 16.3136 44.8511 13.2122C44.6767 9.60986 43.8549 6.41276 41.2206 3.77853C38.5808 1.13867 35.3893 0.32251 31.7869 0.14802C28.6799 -0.0264693 25.601 0.00167422 22.4996 0.00167422C19.3925 0.00167422 16.3136 -0.0264693 13.2122 0.14802C9.60986 0.32251 6.41276 1.1443 3.77853 3.77853C1.13867 6.41839 0.32251 9.60986 0.14802 13.2122C-0.0264693 16.3193 0.00167422 19.3982 0.00167422 22.4996C0.00167422 25.601 -0.0264693 28.6855 0.14802 31.7869C0.32251 35.3893 1.1443 38.5864 3.77853 41.2206C6.41839 43.8605 9.60986 44.6767 13.2122 44.8511C16.3193 45.0256 19.3982 44.9975 22.4996 44.9975C25.6066 44.9975 28.6855 45.0256 31.7869 44.8511C35.3893 44.6767 38.5864 43.8549 41.2206 41.2206C43.8605 38.5808 44.6767 35.3893 44.8511 31.7869C45.0313 28.6855 44.9975 25.6066 44.9975 22.4996ZM22.494 34.044C16.1054 34.044 10.9495 28.8882 10.9495 22.4996C10.9495 16.111 16.1054 10.9551 22.494 10.9551C28.8825 10.9551 34.0384 16.111 34.0384 22.4996C34.0384 28.8882 28.8825 34.044 22.494 34.044ZM34.5112 13.1785C33.0196 13.1785 31.8151 11.9739 31.8151 10.4823C31.8151 8.9907 33.0196 7.78616 34.5112 7.78616C36.0028 7.78616 37.2074 8.9907 37.2074 10.4823C37.2078 10.8365 37.1384 11.1873 37.003 11.5146C36.8677 11.8419 36.6691 12.1393 36.4187 12.3898C36.1682 12.6402 35.8708 12.8388 35.5435 12.9741C35.2162 13.1095 34.8654 13.1789 34.5112 13.1785Z" fill="white"/>
</svg>
