<svg width="45" height="45" viewBox="0 0 45 45" fill="none" xmlns="http://www.w3.org/2000/svg">
<path d="M22.5 0C10.0734 0 0 10.0734 0 22.5C0 34.9266 10.0734 45 22.5 45C34.9266 45 45 34.9266 45 22.5C45 10.0734 34.9266 0 22.5 0ZM31.6523 18.4312C31.6617 18.6234 31.6641 18.8156 31.6641 19.0031C31.6641 24.8625 27.2086 31.6148 19.057 31.6148C16.6483 31.6188 14.2898 30.9271 12.2648 29.6227C12.6094 29.6648 12.9633 29.6813 13.3219 29.6813C15.3984 29.6813 17.3086 28.9758 18.825 27.7852C17.9009 27.767 17.0055 27.461 16.2635 26.9098C15.5216 26.3586 14.9701 25.5897 14.6859 24.7102C15.3496 24.8363 16.0332 24.8099 16.6852 24.6328C15.6821 24.43 14.7802 23.8865 14.1321 23.0945C13.4841 22.3025 13.1299 21.3108 13.1297 20.2875V20.2336C13.7273 20.5641 14.4117 20.7656 15.1383 20.7891C14.198 20.1631 13.5323 19.2016 13.2774 18.1011C13.0226 17.0006 13.1978 15.8443 13.7672 14.8687C14.8804 16.2375 16.2686 17.3572 17.842 18.1554C19.4153 18.9536 21.1388 19.4125 22.9008 19.5023C22.6768 18.5515 22.7732 17.5533 23.175 16.6629C23.5769 15.7725 24.2616 15.0398 25.1228 14.5787C25.984 14.1177 26.9734 13.954 27.9373 14.1133C28.9011 14.2725 29.7852 14.7458 30.4523 15.4594C31.4441 15.2631 32.3953 14.8993 33.2648 14.3836C32.9343 15.4105 32.2422 16.2824 31.3172 16.8375C32.1957 16.7317 33.0536 16.4955 33.8625 16.1367C33.2683 17.0271 32.5198 17.8041 31.6523 18.4312Z" fill="white"/>
</svg>
